<?xml version="1.0"?><svg version="1.2" baseProfile="tiny-ps" viewBox="0 0 300 300" xmlns="http://www.w3.org/2000/svg" xmlns:xlink="http://www.w3.org/1999/xlink"><title>logo.svg</title><g><g fill="#fffaf1" transform="matrix(.1 0 0 -.1 0 300)"><path d="M0 1500V0h3000v3000H0V1500z"/></g><g fill="#eae1d2" transform="matrix(.1 0 0 -.1 0 300)"><path d="M970 1850v-402l193 5 192 4 50 16 51 16 31 32c18 17 35 39 38 50l7 20 43-40 44-40 113-57c129-64 200-115 229-161l20-32-3-38-3-37-42-32-41-31-45-7-44-7-48 11c-26 6-67 22-91 36l-43 25-53 58-53 57-32 59-32 60-1-87v-86l43-37c23-20 69-50 102-66l61-30 66-10 66-10 58 10 57 11 43 25 42 25 21 43 21 43v88l-21 43-21 43-36 31c-21 16-88 55-149 85l-113 55-50 40c-28 22-60 55-71 72l-19 32v63l35 31 35 30 42 12 43 11 44-6c25-3 66-16 91-28l45-22 46-47c25-26 52-61 59-78s16-31 21-31h9v117l-20 26-20 26-58 28-57 28h-210l-41-22c-23-12-53-36-67-52l-25-30-5 13c-3 8-21 25-39 40l-34 25-53 14-53 14 30 12c63 26 102 89 102 165v43l-22 34-23 34-60 30-60 30-167 3-168 4v-402zm317 359 42-20 21-33 20-33v-118l-18-34-19-34-34-19c-40-22-68-23-113-4l-33 14-26 34c-36 46-53 99-62 185l-7 72 7 12 8 12 86-7 86-6 42-21zm-176-260c11-16 35-37 52-46l32-16 78-7 78-7 27-20c15-11 36-35 47-54l20-34v-170l-21-39-20-40-40-20-39-21-132-3-133-4v289l1 288 14-33c8-18 24-47 36-63zM690 920c-22-14-6-22 24-11l26 11V750h30v170l25-12 25-11 7 7 7 7-14 9-15 10H705l-15-10zm158-52c1-35 4-76 5-93l2-30 28 53 27 52h23l-5-50-5-50h28l-3 57-3 58-17 3-17 3-21-33-20-33v125h-25l3-62zm346 47c3-9 6-50 6-91v-74h99l15 16c21 21 20 27-8 53l-24 23 20 20 19 19-3 22-3 22-64 3-64 3 7-16zm102-9 6-14-12-22-12-22-29 28c-16 15-29 31-29 36v8h71l5-14zm-31-67 35-31v-38h-80v50c0 28 2 50 5 50 2 0 20-14 40-31zm545 61v-30h-15c-9 0-27-11-40-25l-25-24v-61l24-6c13-3 36-4 50-2l27 3 2 88 2 87h-25v-30zm0-85v-45h-60v19c0 20 36 71 51 71h9v-45zm145 105-6-10 7-11c3-6 26-19 51-30l44-19-3-37-3-38-23-3-23-4-15 12-14 12v46l13 5 12 5-17 1-17 1-9-17-10-18 9-23 8-22 25-11 25-12 31 13 30 13 6 22 6 23-11 21-12 21-39 20c-22 11-40 25-40 31v11l46-7 46-7-7 11-6 11h-98l-6-10zm-946-54-24-11-3-34-3-33 17-19 17-19h22c22 0 45 17 45 33v9l-14-12-15-12-23 4-23 3-3 18-3 17h91v13c0 17-21 43-41 50l-16 5-24-12zm51-10c0-2 3-11 6-20l6-16h-72v8c0 14 23 32 42 32 10 0 18-2 18-4zm362 17c-8-3-22-19-33-37l-19-31v65h-20V750h8c4 0 18 23 29 50l21 50h42v9c0 13-12 19-28 14zm71-3c-13-5-23-14-23-20 0-13 6-13 29 2l18 11 19-7 18-7-39-22-40-23v-49l48-3 47-3v48c0 54-7 68-35 76l-20 6-22-9zm57-75v-25h-30c-16 0-30 3-30 7 0 12 33 43 47 43h13v-25zm726 53-26-33v55h-25l3-47c2-27 4-55 6-63l2-15 30 55 29 55 3-52 3-53h29v108l-14 11-14 12-26-33zm-676-38v-60h8c4 0 21 26 37 58l30 57 3-57 3-58h19v120h-38l-21-32-21-33v65h-20v-60zm502 52c2-4 12-29 22-55l19-48-16-35-17-34h25l19 53c10 28 26 69 36 90l18 37h-25l-13-42-13-43-13 30c-7 17-13 36-14 43v12h-16c-9 0-14-3-12-8zm259-18-11-26 12-26 13-27 28-9 27-10 18 17 17 17-31-6-30-6-13 16-12 15 3 28 3 28 38-1 37-1v17h-87l-12-26z"/></g><g fill="#cbbeab" transform="matrix(.1 0 0 -.1 0 300)"><path d="M970 1849v-402l188 6 187 6 53 16 52 16 35 30c19 17 37 39 40 50l6 19 45-38 44-39 115-57 115-57 51-41 51-40 19-44 20-44-17-35-16-35-54-26-54-26-53 4-52 4-58 27-58 26-52 54-52 53-37 70-37 69-1-80v-81l43-40c52-50 76-65 152-93l60-23h70l70-1 42 12 42 12 32 26 32 27 18 41 19 40v70l-19 40-18 40-41 37-40 36-124 63-123 63-57 56-58 56v86l31 29 31 29 41 11 42 11 51-5 51-5 41-21c56-29 105-73 139-126 15-25 31-45 36-45h7v107l-25 27-25 27-57 26-57 26-71 5-72 4-56-16-57-16-40-39-41-39-9 19c-6 10-29 30-53 43l-42 25-43 7-44 7 49 26 48 26 23 45 22 44v68l-17 35-16 35-36 23-36 24-60 16-59 15H970v-401zm321 360 43-24 20-34 19-34v-112l-17-33-17-33-32-19-32-20h-66l-27 14c-39 20-68 55-92 109l-21 47-6 86-6 87 95-5 95-5 44-24zm-172-267c12-12 32-29 44-37l23-14 83-10 84-9 25-19c14-11 35-31 46-46l20-27 4-87 3-88-23-45-23-45-35-20-35-20-137-3-138-4 1 289v288l19-40c10-22 27-50 39-63zM703 923c-7-2-13-9-13-14v-10l19 11c11 5 25 10 31 10h12l-4-80-3-80h20l-3 80-4 80h12c6 0 20-5 31-10l19-11v10c0 18-82 29-117 14zm147-78v-85h8c4 0 17 23 30 50 13 28 27 50 32 50h10V760h20v39c0 49-8 71-26 71h-14l-20-32-20-33v125h-20v-85zm340 78v-9l53 1h52l3-21 3-21-17-14-16-13-28 31c-16 17-31 29-34 26-3-4-6-37-6-75v-68h120v47l-20 18-20 18 22 24 22 24-10 17-11 17-57 3-56 3v-8zm115-143-6-10h-79v115l46-48 45-47-6-10zm505 122v-27l-29-13-29-13-12-29-12-30 6-15 5-15h91v170h-20v-28zm0-87v-45h-60v50l20 20c11 11 25 20 30 20h10v-45zm150 97v-18l44-21 44-22 7-21 7-21-16-24-16-25h10c5 0 17 11 25 24l16 23-10 25-9 25-47 22-46 22 7 10 7 11 38-5 39-5v18h-100v-18zm-968-54-12-12v-65l22-15c27-19 39-20 61-3l17 12h-75l-3 17-3 17 43 3 43 3-3 20c-2 11-9 23-15 27-18 12-62 9-75-4zm76-20 3-18h-71v13c0 21 12 28 40 25l25-3 3-17zm282-23v-55h8c5 0 17 18 27 41l19 41 25 10 26 10-13 5c-22 8-42-6-57-39l-14-33-1 38v37h-20v-55zm135 45-6-10 29 6 30 6 6-11 7-11-24-9c-30-12-57-38-57-57v-14h100v86l-12 12-12 12h-27c-15 0-31-4-34-10zm65-60v-30h-60v29l28 15c15 8 28 15 30 16 1 0 2-13 2-30zm50 15v-55h8c5 0 17 18 27 40s24 45 32 51l13 11V760h21l-3 52-3 53-17 3-17 3-20-38-20-38-1 38v37h-20v-55zm521 8 20-48-5-25c-2-14-8-33-11-42l-7-18h22v16c0 8 14 47 30 86 34 79 34 78 20 78h-10v-17c-1-10-7-29-14-42l-13-23-16 41c-9 22-21 41-27 41h-9l20-47zm109-8v-55h8c4 0 17 23 29 50l22 50h23l-4-50-3-50h27l-6 16c-3 9-6 33-6 55v39h-30l-20-32-20-33v65h-20v-55zm142 43-12-12v-65l22-15c27-20 39-20 63-3l18 14-31-5-30-4-16 24-15 23 5 22 6 22 42 4 41 4-40 1-41 2-12-12zm-415-15c-4-3-7-19-7-33v-28l13-10c6-5 23-13 37-16l25-7-26 15c-15 9-29 23-33 31l-6 16 10 20 11 19h-9c-5 0-12-3-15-7z"/></g><g fill="#a3927b" transform="matrix(.1 0 0 -.1 0 300)"><path d="M970 1855v-395h359l50 11 50 10 39 29 39 28 12 30 13 30 37-37 37-37 132-68 132-68 50-45 50-45 11-38 12-39-19-32-19-33-44-23c-24-13-39-23-32-23 23 0 89 40 110 66 12 15 26 44 31 65l11 39-7 38c-10 54-27 84-74 126l-42 37-103 50c-57 27-130 69-163 93l-59 44-22 46-23 45 7 23c11 34 35 59 80 79l40 19h101l47-16 46-16 47-41c26-23 60-62 76-86l28-45v120l-27 27c-16 14-50 36-78 49l-50 22-90 1h-90l-58-28-58-29-16-24-15-24-43 39-43 40-61 12-60 13 37 16 37 17 32 36 32 36 6 43 6 43-11 30c-24 62-83 104-178 124l-53 11H970v-395zm287 370 51-15 30-35 31-34 7-46 6-46-12-44-12-43-28-27-28-27-48-6-47-5-33 18-33 18-25 37c-13 20-31 61-40 90l-16 54v126h146l51-15zm-118-298c35-29 46-33 136-42l60-6 35-17 35-18 23-44 22-44v-157l-14-32c-17-40-51-71-95-86l-34-11h-247v585l24-50 23-51 32-27zm311-598v-76l46-43 46-42 66-30 67-31 95-3 95-3-65 8-65 8-50 23-50 24-60 61-60 60-32 60-32 60-1-76zM732 923l17-4 4-82 3-82 2 83 2 82h11c6 0 19-5 30-10l19-11v9c0 12-36 22-75 21l-30-1 17-5zm118-78v-89l12 12 11 11-2 68-2 68-10 10-9 9v-89zm346 76-5-8 24 5c14 2 25 6 25 8 0 8-39 4-44-5zm624-20v-30l-17-4-18-5 18-1 19-1-4-50-3-50h15v85c0 47-2 85-5 85s-5-13-5-29zm145 19-7-11 12-14c7-8 17-15 23-15h11l-19 13-18 14 7 11c4 7 5 12 2 12s-8-5-11-10zm45 6c0-2 11-6 25-8l25-5v17h-25c-14 0-25-2-25-4zM690 909v-10l10 6c6 3 10 8 10 11 0 2-4 4-10 4-5 0-10-5-10-11zm608-21-5-31 14 18c15 22 16 32 4 39l-9 6-4-32zm-90-58-3-70h15v123l28-24 27-24-29 33c-17 17-31 32-32 32s-4-32-6-70zm-303 30-6-10 15 6 16 6V760h15l-3 55-4 55h-13c-8 0-17-4-20-10zm91-6c-18-18-20-47-6-75l11-19h29l-22 23-23 22 48 3 47 3v18c0 19-19 41-34 41l-11-1 18-10c9-5 17-17 17-24v-15h-81l11 19c5 11 15 22 22 24l13 5-12 1c-6 1-19-6-27-15zm362-26c5-71 10-77 11-15l1 57h-16l4-42zm41 20-12-23 19 16c10 9 26 19 34 22l15 5-22 1-22 1-12-22zm87 13-6-9 20 5c23 6 26 13 6 13-8 0-17-4-20-9zm52 2 12-5v-88h-60v13c0 7 6 19 13 27 6 8 2 6-10-4-13-11-23-25-23-33v-13h100v36c0 41-15 74-33 73l-12-1 13-5zm66-9c3-9 6-34 6-57v-42l8 12 7 12-3 45-4 46h-20l6-16zm74-39 4-55h19l-3 52-3 51-10 4-10 3 3-55zm365 39c9-11 17-30 17-42v-21l-16-15c-8-9-12-16-7-16s14 5 21 12l12 12v53l-22 19-23 19 18-21zm81-36c13-29 21-59 19-65-3-7-2-13 0-13 3 0 10 14 16 30l10 31-9-6-10-6-16 40c-9 23-20 41-25 41h-8l23-52zm53 25c-7-39-1-40 11-4l11 31h-8c-5 0-11-12-14-27zm55-25c-2-63 1-69 19-37l11 21-10-6-11-6-4 42-4 43-1-57zm53 42-6-10 15 6 15 6 4-54 3-53 2 58 2 57h-14c-8 0-18-4-21-10zm87-2c-15-15-16-53-2-79l11-19 22 1h22l-22 9-21 9-7 20-6 21 6 19 6 20 42 4 42 4-40 1-41 2-12-12zm-622-25-21-27 3-20c2-11 8-21 14-23l11-4-4 26-5 25 16 25c22 33 13 32-14-2zm204 2c-4-8-3-26 0-39l6-24 15-6 15-5-17 25-17 26 12 19 12 19h-10c-6 0-13-7-16-15zm-653-29 13-27-15-10-14-11 15 5 15 4 3 20 3 20-16 13-16 13 12-27zm1139-36-15-10h12c6 0 15 5 18 10 8 12 4 12-15 0zm-313-54c-4-10-5-21-2-24 9-9 17 6 13 25l-4 18-7-19z"/></g><g fill="#776143" transform="matrix(.1 0 0 -.1 0 300)"><path d="M970 1856v-396h90l1 303c1 166 0 341-1 390l-2 87h157l37-10 37-11 32-26 32-27 13-33 14-32v-85l-20-41-20-40-29-18-29-17-44-1-43-2 74-8 74-9 30-17c16-10 38-29 49-43l18-25 12-62 11-62-12-56-12-55-26-30c-34-41-57-52-128-61l-60-8 78 4 79 4 54 26 54 26 23 39 23 40 39-40 38-39 124-62 125-62 49-45c99-89 104-159 15-213-17-10-26-19-21-19 6 0 27 11 46 24l36 25 17 34 16 35v103l-20 38c-27 54-65 82-200 151-178 91-245 149-257 223l-5 34 32 39 33 39-41-41-40-41-22 29-22 30-42 19c-23 10-61 21-84 25l-42 7 48 22 49 22 21 28c12 15 26 44 32 64l9 36-9 39-8 38-28 29-28 29-55 21-56 22-157 5-158 5v-397zm110 157c0-29 80-114 107-113 4 1-5 8-20 16l-28 15-30 47c-16 25-29 41-29 35zm615-122-30-9 60-1 60-1 50-24 50-23 43-43c24-24 51-58 60-74l17-31 3 55 3 55-36 32-37 32-47 15c-25 8-73 17-106 20l-60 5-30-8zm-245-563v-76l46-41c83-73 188-111 299-109l60 1-67 7-67 8-51 28-52 28-54 59-55 59-29 56-29 57-1-77zM753 840v-85l4 43c2 23 2 61 0 85l-4 42v-85zm52 70c3-5 8-10 11-10 2 0 4 5 4 10 0 6-5 10-11 10h-10l6-10zm47-69-2-85 8 10 8 9-6 75-7 75-1-84zm450 54v-30l5 18c2 9 2 23 0 30l-5 12v-30zm521-55v-85l4 43c2 23 2 61 0 85l-4 42v-85zm137 71c0-6 4-13 10-16l10-6-6 15c-7 18-14 21-14 7zm-747-81v-75l4 38c2 20 2 54 0 75l-4 37v-75zm-285-2c5-71 10-77 11-15l1 57h-16l4-42zm435-13v-60l4 33c2 18 2 45 0 60l-4 27v-60zm41 33-19-23 25 20c14 11 27 21 29 22 2 2 0 3-6 3-5 0-18-10-29-22zm209-33v-60l4 33c2 18 2 45 0 60l-4 27v-60zm62 45c3-5 8-10 11-10 2 0 4 5 4 10 0 6-5 10-11 10h-10l6-10zm440-10c9-30 34-80 40-80 4 0-35 92-43 100-2 3-1-6 3-20zm116-34-1-60 9 10 8 9-7 50-7 50-2-59zm77 12c5-71 10-77 11-15l1 57h-16l4-42zM992 848c-14-14-16-54-3-62l8-5-5 24-4 25 12 15c15 18 9 20-8 3zm562-35 1-53h8c9 0 8 59-2 85l-8 20 1-52zm204 30c-9-10-18-27-22-38l-6-20 9-13 8-13v61l18 20c10 11 16 20 13 20s-12-8-20-17zm-687-9 1-19 5 13c3 7 2 16-1 19-3 4-6-2-5-13zm984-25-1-39 8 13c10 15 10 54 1 60l-8 5v-39zm-98 24c-4-3-7-14-7-23v-17l23-19 22-19-19 22-19 22 6 21c5 21 4 24-6 13zm404-14-1-26 18-16c10-10 22-17 27-17s1 6-8 13c-10 6-21 26-26 42l-9 30-1-26zm-1056-34v-23l8 5c4 2 7 10 7 18s-3 16-7 18l-8 5v-23zm179 10c-3-8-4-20-2-27l5-13 5 28c6 29 1 36-8 12zm641-86c-4-6-5-12-2-15 2-3 7 2 10 11 7 17 1 20-8 4z"/></g><g fill="#4e2f09" transform="matrix(.1 0 0 -.1 0 300)"><path d="M970 1850v-390h90v780h-90v-390zm292 381c15-5 41-19 59-32l31-22 14-33 14-33v-103l-16-34-16-34-27-19c-14-10-35-21-46-24l-20-5 25-1 25-1 55 28 55 27 22 34 23 34v102l-20 33-21 33-52 24c-28 13-70 26-92 29l-40 6 27-9zm528-355c80-21 138-66 194-150l26-39v105l-30 28-31 29-55 20-55 21-47-1h-47l45-13zm-430-2c24-10 61-47 76-76l14-27 6-60 7-60-12-47c-15-60-41-97-83-117l-33-17h16c30 0 103 30 127 53 13 12 31 35 39 50l14 28 44-40 44-40 113-57c133-66 200-113 233-162l25-37v-63l-27-34-27-33 28 25c15 14 34 37 42 52l14 27v95l-21 43-20 42-47 34c-26 19-96 58-155 87l-109 54-49 44c-55 49-79 88-79 127v26l-10-6-9-6-17 26c-22 34-71 62-119 69l-40 6 15-6zm-62-411c7-3 16-2 19 1 4 3-2 6-13 5l-19-1 13-5zm152-136v-67l39-38c67-65 202-123 281-121h25l-53 15-54 14-54 36-55 36-43 57c-24 31-53 74-64 96l-21 40-1-68zM753 840v-85l4 43c2 23 2 61 0 85l-4 42v-85zm1070 0v-85l4 43c2 23 2 61 0 85l-4 42v-85zm-610-10v-75l4 38c2 20 2 54 0 75l-4 37v-75zm-280-20v-55l4 28c2 15 2 39 0 55l-4 27v-55zm430 5v-50l4 28c2 15 2 37 0 50l-4 22v-50zm950-5v-55l4 28c2 15 2 39 0 55l-4 27v-55zm-1332 4 1-19 5 13c3 7 2 16-1 19-3 4-6-2-5-13zm970 0 1-19 5 13c3 7 2 16-1 19-3 4-6-2-5-13zm111-4v-25l5 13c2 6 2 18 0 25l-5 12v-25zm299 4 1-19 5 13c3 7 2 16-1 19-3 4-6-2-5-13zm-1050-30 1-19 5 13c3 7 2 16-1 19-3 4-6-2-5-13zm1059 2c0-2 8-10 18-17l17-14-14 18c-13 16-21 21-21 13z"/></g></g></svg>